<svg width="47" height="47" viewBox="0 0 47 47" fill="none" xmlns="http://www.w3.org/2000/svg">
<path d="M22.497 0C23.0681 0 23.6392 0 24.2103 0C24.6057 0.0351452 25.0011 0.0790772 25.3964 0.0966498C25.7655 0.114222 26.1345 0.166939 26.5035 0.210871C27.0834 0.281161 27.6545 0.395384 28.2344 0.509606C29.0867 0.685331 29.9302 0.913775 30.7561 1.18615C32.0389 1.60789 33.2778 2.14386 34.4639 2.79404C35.1932 3.18943 35.9136 3.61995 36.599 4.08563C37.6094 4.77096 38.5583 5.53537 39.4369 6.37007C40.1662 7.06418 40.8515 7.79345 41.4842 8.57543C41.9147 9.11139 42.3452 9.65614 42.7318 10.2272C43.5138 11.3783 44.1903 12.582 44.7614 13.856C45.2535 14.9719 45.6664 16.1229 45.9827 17.3002C46.1672 17.9943 46.3078 18.6972 46.4396 19.4001C46.589 20.2436 46.6856 21.0959 46.7384 21.957C46.7559 22.2996 46.7647 22.6423 46.8087 22.985C46.8087 23.4858 46.8087 23.9866 46.8087 24.4962C46.7647 24.5226 46.7735 24.5665 46.7735 24.6016C46.7471 25.12 46.7032 25.6384 46.6417 26.1568C46.3869 28.3007 45.8597 30.3742 45.0162 32.3599C43.2941 36.4543 40.6319 39.8019 37.0295 42.4027C34.253 44.4059 31.1778 45.7151 27.8127 46.3653C27.5667 46.4092 27.3294 46.4707 27.0746 46.4883C27.0746 41.0408 27.0746 35.6021 27.0746 30.1721C27.1449 30.137 27.2152 30.1546 27.2855 30.1546C28.9725 30.1546 30.6682 30.1546 32.3552 30.1546C32.4782 30.1546 32.5485 30.137 32.5485 29.9964C32.5485 29.8998 32.5748 29.8031 32.5836 29.7065C32.7418 28.696 32.8999 27.6944 33.0493 26.684C33.1811 25.8054 33.3217 24.9267 33.4535 24.0481C33.4886 23.8284 33.5501 23.6088 33.5326 23.354C31.3711 23.354 29.2185 23.354 27.0571 23.354C27.0571 23.2661 27.0571 23.1958 27.0571 23.1255C27.0571 21.7988 27.0571 20.4721 27.0571 19.1453C27.0571 18.8115 27.0658 18.4864 27.1186 18.1525C27.3031 17.063 27.8215 16.2107 28.8407 15.7187C29.4206 15.4375 30.0444 15.3321 30.677 15.3233C31.6611 15.3145 32.6451 15.3233 33.6292 15.3233C33.6907 15.3233 33.7522 15.3409 33.8137 15.3057C33.8225 15.2882 33.8225 15.2706 33.8225 15.2618C33.8225 13.3991 33.8225 11.5364 33.8225 9.67371C33.8225 9.57706 33.7786 9.55071 33.6907 9.54192C32.6891 9.39255 31.6786 9.26954 30.6682 9.19925C29.5787 9.12018 28.4892 9.05867 27.3997 9.16411C26.6529 9.24319 25.9148 9.37498 25.1944 9.61221C23.7095 10.113 22.4442 10.9389 21.4953 12.1954C20.2916 13.7945 19.7908 15.6308 19.7381 17.599C19.6941 19.4529 19.7205 21.298 19.7205 23.1519C19.7205 23.2222 19.7381 23.2925 19.6854 23.3716C17.726 23.3716 15.7491 23.3716 13.781 23.3716C13.781 25.6384 13.781 27.8877 13.781 30.1458C15.7667 30.1458 17.7348 30.1458 19.7029 30.1458C19.7029 35.5933 19.7029 41.032 19.7029 46.4795C19.5623 46.4619 19.4305 46.4444 19.2988 46.418C18.7452 46.3214 18.1917 46.2071 17.6381 46.0666C13.1132 44.9068 9.27359 42.6048 6.10173 39.1781C4.68714 37.6229 3.47463 35.8745 2.50814 33.959C1.10233 31.1562 0.285206 28.1952 0.0655484 25.0761C-0.0574598 23.3276 -0.0135283 21.5967 0.250061 19.8658C0.601513 17.6253 1.24291 15.4727 2.21819 13.4255C3.61521 10.4821 5.53941 7.93403 7.99079 5.79017C10.0907 3.94505 12.4542 2.53045 15.0638 1.5376C17.4097 0.6414 19.8435 0.131795 22.3564 0.0351453C22.4091 0.026359 22.4618 0.0439315 22.497 0Z" fill="white"/>
</svg>
