<svg width="48" height="47" viewBox="0 0 48 47" fill="none" xmlns="http://www.w3.org/2000/svg">
<path d="M24.0113 46.1876C20.6199 46.1876 17.2285 46.1876 13.8296 46.1876C10.7259 46.1876 7.93257 45.2413 5.56316 43.2429C2.52759 40.6842 0.960596 37.3761 0.945456 33.4018C0.915176 26.5283 0.884899 19.6547 0.953029 12.7811C1.00602 7.80765 3.29973 4.05293 7.59949 1.56997C9.47686 0.487455 11.551 0.0105444 13.7236 0.0105444C20.5821 0.00297442 27.4481 -0.0121651 34.3065 0.0181149C38.2807 0.0332549 41.5888 1.59268 44.1475 4.62068C46.1308 6.96738 47.0922 9.73043 47.0998 12.8114C47.1074 19.6699 47.1528 26.5359 47.0846 33.3943C47.0317 38.3678 44.7455 42.1225 40.4533 44.613C38.5305 45.7258 36.4034 46.1876 34.1778 46.1876C30.794 46.18 27.4026 46.1876 24.0113 46.1876ZM24.0264 42.0846C27.3951 42.0846 30.7637 42.0846 34.1324 42.0846C35.4723 42.0846 36.7819 41.8803 37.9855 41.2822C41.2709 39.6395 42.9817 36.9598 43.0044 33.2959C43.0423 26.498 43.0196 19.6926 43.012 12.8947C43.012 11.6078 42.8076 10.3512 42.2323 9.18539C40.5972 5.8773 37.9249 4.1362 34.2383 4.11349C27.4253 4.06807 20.6123 4.09835 13.7993 4.10592C11.5965 4.10592 9.63583 4.79479 7.97799 6.26337C5.96437 8.05746 5.02569 10.3285 5.02569 13.0082C5.02569 19.5336 5.02569 26.0514 5.02569 32.5767C5.02569 33.0688 5.03326 33.5608 5.07111 34.0529C5.29064 36.8992 6.62296 39.0945 8.96966 40.6842C10.461 41.691 12.1264 42.0922 13.9129 42.0922C17.2891 42.0846 20.6578 42.0846 24.0264 42.0846Z" fill="white"/>
<path d="M24.034 34.9916C17.4935 34.9991 12.1415 29.6472 12.1339 23.0991C12.1263 16.5662 17.4783 11.2066 24.0264 11.199C30.5593 11.1915 35.9189 16.5435 35.9264 23.0915C35.9264 29.6244 30.5745 34.984 24.034 34.9916ZM31.8235 23.1142C31.8462 18.8372 28.3564 15.3247 24.0415 15.302C19.7645 15.2793 16.252 18.7766 16.2293 23.084C16.2066 27.361 19.6964 30.8735 24.0113 30.8962C28.2883 30.9189 31.8008 27.4216 31.8235 23.1142Z" fill="white"/>
<path d="M36.4261 13.7198C34.7758 13.7198 33.4056 12.3497 33.4132 10.7145C33.4283 9.07943 34.7758 7.73953 36.4109 7.73196C38.0536 7.72439 39.4389 9.10971 39.4162 10.7448C39.4087 12.3875 38.0688 13.7198 36.4261 13.7198Z" fill="white"/>
</svg>
