<svg xmlns="http://www.w3.org/2000/svg" viewBox="0 0 483.89 341.69"><defs><style>.cls-1{fill:#fd5b5c;}.cls-2,.cls-3{fill:#f7f7f7;}.cls-3{font-size:34px;font-family:Nudista-Bold, Nudista;font-weight:700;}</style></defs><title>logo</title><g id="Layer_2" data-name="Layer 2"><g id="Layer_1-2" data-name="Layer 1"><path class="cls-1" d="M438.75,85.77c-1.68,13.25-4.5,26.23-9.67,38.61a64.13,64.13,0,0,0-3.68,11.39c-1.47,7-3.77,13.44-10.36,17.49a6.65,6.65,0,0,0-3.13,6c.39,5-2.56,7.68-6,10.14-3.22,2.28-5.37,5.3-5.06,9.2.81,10.22-6.61,14.57-13.46,19.17-2.26,1.52-4.2,2.6-3.88,5.61.89,8.36-3.4,14-9.89,18.27-6.94,4.54-13.39,9.93-21.4,12.73-2.88,1-4.18,3.61-5.37,6.26-3.31,7.41-7.79,9.87-15.47,7.85-4.62-1.22-7.07,1-7.82,4.67-1.92,9.35-8.73,13-16.75,15.11-5.72,1.52-10.63,3.6-13.32,9.37-1,2.14-3.32,3.3-5.57,4-6.68,2.1-12.65,5.89-20.39,5.46-4.52-.26-9.28,3.23-13.88,5.17-9.52,4-19,8.16-29.72,7.55a13.21,13.21,0,0,0-8.37,3c-6.23,4.67-13.39,5.72-20.81,5.68-10.21-.06-19.95,3.21-30.15,3.67-15.94.71-31.81,3.18-47.7,4-8.68.47-17.58,1.44-26.43.57-8.55-.84-19.24-14.63-17.31-22.94.49-2.11,1.06-4.2,1.56-6.3,1.54-6.39,4.68-11.15,11.49-13.15a28.68,28.68,0,0,0,12.12-6.7c2.62-2.53,6-2.58,9.41-1.51a24.31,24.31,0,0,0,16.17-.32,15.73,15.73,0,0,1,11.66.27c7.1,2.81,14.39,1.92,21.65.71,1.55-.25,3.17-.72,3.8-2.11,1.84-4,4.75-3.92,8.64-3.52,7.28.75,14.57,1.29,21.82,2.33a19.24,19.24,0,0,0,8.41-.62c4.55-1.42,8.86-3.34,13.95-3,3.65.27,6.39-2.59,8.33-5.66,2.86-4.52,6.86-5.46,12-5.09,9.33.66,18.17-1,25-8.23,2.1-2.23,4.6-1.41,7-.91,6.26,1.27,7,.9,8.68-5.39.92-3.43,3-5,6.44-5.06,17.95-.52,33.19-7.88,46.57-19.24,6.06-5.15,11.25-11.34,16.83-17.06,1.87-1.92,3.79-4.06,6.49-4.45,10-1.44,16.06-8.37,20.24-16.31,6.27-11.92,14.91-21.44,24.74-30.36a46,46,0,0,0,14.71-25.57,37.53,37.53,0,0,1,7.83-17.08,38.12,38.12,0,0,0,6.5-11.73c1.19-3.34,2.83-6.35,6.06-8.29,4.77-2.86,7.25-1.66,7.47,3.79C438.78,84.1,438.75,84.94,438.75,85.77Z"/><path class="cls-2" d="M137.06,236.63c-3.5,0-7-.59-10.37.93-3.69,1.68-5.35,4.66-6.25,8.46-1.38,5.82-4.69,7.3-10,4.56a25.14,25.14,0,0,1-13.56-17.69,164.66,164.66,0,0,0-15.5-44.14c-3.19-6.06-2.56-13.31-3.75-20-3.18-18-12-33.4-20.52-49.08Q32.63,74.41,8.35,29C6.07,24.76,3.7,20.54,1.51,16.24-1.13,11-.39,8.08,4.42,3.54,8.68-.47,12.3-1,17.05,1.67c6.44,3.66,10.75,9.25,14.42,15.55C46.37,42.77,57.75,70,69.52,97,75.77,111.37,81.83,125.8,88,140.2c3.55,8.29,5.14,8.86,13,4.83,2.08-1.07,4.15-2.13,6.24-3.18,13.26-6.66,23.43-5.22,34.1,5.17,11.09,10.79,18,24.29,23.95,38.3,2.55,6,4.82,12.06,7.18,18.11a13.82,13.82,0,0,1-1.18,13C163.22,228.69,153,237.58,137.06,236.63ZM115.8,152.55c-4.33,0-13.22,5.13-17.12,9.46-3.37,3.75-1.17,7.6-.58,11.38,2,12.49,4,25,7.67,37.1,1.19,4,3,5,6.84,2.79,7.65-4.39,15.46-8.51,23.27-12.62,2.23-1.17,3.41-2.63,2.7-5.15-3.11-11-5.38-22.37-9.76-33C126.53,157,122.72,152.49,115.8,152.55Z"/><path class="cls-2" d="M245.91,156.4c-.39,5.14-.75,10.29-1.18,15.43-.3,3.69,1.17,4.28,4.46,3.08,12.51-4.55,19.1-13.83,19.54-27.31.21-6.37-1-12.61-1.11-18.93,0-1.22-.55-3.26,1.18-3.29,1.94,0,1.17,1.91,1.1,3.15-.29,4.72,2.76,7.65,5.71,10.61a25.18,25.18,0,0,1,3.11,31.37,88.85,88.85,0,0,1-10.91,13.63c-6.75,6.92-13.92,13.43-20,21-2.55,3.18-5.42,3.76-9.25,2.38a63.78,63.78,0,0,1-17.37-9.72c-3.8-2.92-5.17-6.51-3.81-11.41,3.71-13.31,7.26-26.67,10.53-40.09,1.33-5.48,1.83-11.16,2.55-16.77.2-1.56.72-3.69-1-4.55-1.57-.78-2.58,1.07-3.68,2-9.68,7.9-19.84,8-27.26.28-7.18-7.48-6.74-32.27.74-39.44,4.7-4.51,10.6-5,16.38-3.65,4.22,1,5.45-.53,6-4.06a21.35,21.35,0,0,1,.76-2.9c.29-.93.45-2.19,1.64-2.23s1.45,1.19,1.84,2.1c5,11.77,13.28,22.21,12.56,36.24-.38,7.57,2.63,15,4.77,22.39A61.17,61.17,0,0,1,245.91,156.4Zm-20.39-52.51c-.29-1.27-.74-3.73-1.41-6.12-1.43-5-3.32-6.08-8.48-4.85-9.36,2.22-13.18,8.6-10.37,17.89,1.07,3.52,1.6,7.84,6.26,8.82,3.83.8,9.5-2.57,11.89-6.91A16.52,16.52,0,0,0,225.52,103.89Z"/><path class="cls-2" d="M321.56,54.08c4.11,3.55,5.81,10.08,7.72,15a175.73,175.73,0,0,1,7.54,22.42c2.51,10.41,7,21.69-3,29-4.84,3.54-9.29.08-13.84-3.18-5.53-4-5.95-3.91-11.58,1.13-5.91,5.31-16,16.86-24.71,13.64-7.75-2.86-13.92-13.72-19.55-19.14a26.49,26.49,0,0,1-7.37-13c-1.35-4.91-6.17-14-4.28-19,1.78-4.67,7-3.72,10.58-1.81,5.79,3,5.47,9.21,7.31,14.83s14.12,25,20.66,17.76c1.72-1.92,2.13-6,3.28-8.41,1.65-3.44,3.43-6.28,4.5-10,1.6-5.57,3.17-11.18,4.75-16.77C305.61,69.32,308.75,43,321.56,54.08Z"/><path class="cls-2" d="M185.36,173.65c-11.25-.46-19.89-4.53-25.51-14.4-4.11-7.23-8.67-14.2-12.32-21.69-4.19-8.61-2.91-16.84,3.63-23.91a53.17,53.17,0,0,1,9.72-8.56c2.87-1.89,6-2.34,9-.66a34.89,34.89,0,0,1,11.74,10.64c1.86,2.67,1.21,5-1,7.09-3.67,3.38-7.39,6.7-11.08,10.06-2.53,2.31-2.78,4.79-.45,7.41,5.52,6.22,11.12,12.37,16.54,18.68,2.45,2.84,4.53,2.66,7.08.19s4.54-5.72,6.61-8.72c.56-.81,1.14-1.88,2.22-1.79,1.44.12,1.66,1.54,1.87,2.62C205.09,159.56,197.25,175,185.36,173.65Zm-13.15-55.73c.07-1.2-1.17-1.56-2.19-1.93-3-1.07-10.17,3.72-10.1,6.88.05,1.86.54,4,2.88,4.58C163.62,127.66,172.06,119.21,172.21,117.92Z"/><path class="cls-2" d="M346.54,73.66c-1.63-18.72,11.22-27.34,23.53-30.61,3.34-.89,5.93,0,7.75,2.91a64.84,64.84,0,0,1,6.52,14.55c1,3.05-.23,5.21-3.33,6.16-4,1.22-7.95,2.48-12,3.57-3.8,1-5.19,3.38-4.21,7.11,2.08,7.88,4.25,15.74,6.35,23.62,1,3.64,3.06,4.41,6.36,2.77s6.61-3.17,10-4.6c1.09-.47,2.28-2,3.54-.58.9,1,0,2.23-.34,3.3-4.19,13.62-20.58,18.37-32,9.29a28.84,28.84,0,0,1-10.93-20.07C347.15,85.3,346.94,79.47,346.54,73.66ZM365.4,64c2.75-1.09,5.72-2.18,8.62-3.45,2.12-.93,1.41-2.36.22-3.53a6,6,0,0,0-6.84-1.6c-3.11,1.2-4,3.89-4.43,6.72C362.74,63.56,363.73,64.24,365.4,64Z"/><text class="cls-3" transform="translate(285.71 329.38) rotate(-15.73)">B</text><text class="cls-3" transform="translate(307.75 323.16) rotate(-20.36)">B</text><text class="cls-3" transform="translate(329.51 315.07) rotate(-26.26)">Q</text><text class="cls-3" transform="matrix(0.85, -0.53, 0.53, 0.85, 350.67, 304.26)"> </text><text class="cls-3" transform="translate(360.96 298.25) rotate(-38.24)">G</text><text class="cls-3" transform="translate(379.94 282.68) rotate(-46.05)">R</text><text class="cls-3" transform="matrix(0.67, -0.74, 0.74, 0.67, 395.28, 266.6)">I</text><text class="cls-3" transform="translate(401.87 259.35) rotate(-49.95)">L</text><text class="cls-3" transform="matrix(0.61, -0.79, 0.79, 0.61, 414.69, 244.08)">L</text></g></g></svg>