<svg width="36" height="46" viewBox="0 0 36 46" fill="none" xmlns="http://www.w3.org/2000/svg">
<path d="M15.4143 0.011534C15.5469 0.0288351 15.6796 0.0461361 15.8064 0.0692041C16.089 0.121107 16.3485 0.224913 16.5792 0.397924C16.9656 0.686274 17.1617 1.07843 17.1905 1.56286C17.2424 2.37024 17.3116 3.17762 17.3693 3.98501C17.4385 4.93656 17.5077 5.88812 17.5712 6.83391C17.6404 7.82584 17.7096 8.82353 17.773 9.81545C17.8307 10.6863 17.8883 11.5571 17.946 12.4221C18.0152 13.4948 18.0844 14.5732 18.1479 15.6459C18.1882 16.3033 18.2286 16.955 18.2632 17.6125C18.2863 18.1315 18.3093 18.6448 18.3151 19.1638C18.3151 19.6136 18.2459 20.0519 18.0902 20.4729C18.0729 20.5248 18.0498 20.5709 18.0325 20.6171C17.7903 21.188 17.3635 21.5225 16.758 21.6436C16.4004 21.7128 16.066 21.6667 15.7372 21.5167C15.3739 21.3437 15.0798 21.09 14.8145 20.7958C14.5781 20.5421 14.3762 20.2653 14.1917 19.9712C11.1698 15.1903 8.14785 10.4152 5.12017 5.63437C4.9587 5.38062 4.81452 5.12687 4.64728 4.87889C4.49157 4.65398 4.47427 4.406 4.50887 4.15225C4.57231 3.67935 4.81452 3.3045 5.17784 2.99885C5.46043 2.7624 5.77761 2.58362 6.10056 2.42215C6.94255 1.99539 7.8249 1.6609 8.71879 1.36101C9.92409 0.957324 11.1525 0.622837 12.3981 0.363322C13.0844 0.219146 13.7822 0.103806 14.48 0.0403691C14.5608 0.0346021 14.6415 0.0346021 14.7222 0.0288351C14.7799 0.023068 14.8318 0.011534 14.8895 0C15.0683 0.011534 15.2413 0.011534 15.4143 0.011534Z" fill="white"/>
<path d="M35.3105 34.3944C35.3047 34.4117 35.2874 34.429 35.2874 34.4463C35.2643 34.7923 35.1317 35.1037 34.9933 35.4151C34.728 36.0091 34.3935 36.5628 34.036 37.0991C33.2055 38.3448 32.2713 39.5097 31.1986 40.5593C30.8583 40.8938 30.495 41.211 30.0971 41.482C29.8203 41.6666 29.5319 41.8223 29.1974 41.8799C28.6092 41.978 28.1017 41.828 27.7326 41.3378C27.4846 41.0034 27.254 40.6573 27.0348 40.3055C25.743 38.2352 24.4569 36.1591 23.1709 34.0829C22.8307 33.5351 22.4962 32.9814 22.1559 32.4336C21.7695 31.8165 21.7522 31.1764 22.0694 30.5305C22.3462 29.9711 22.7788 29.5731 23.3901 29.3886C23.7188 29.2906 24.0417 29.3021 24.3647 29.4059C26.7292 30.1902 29.0936 30.9688 31.4581 31.7531C32.3808 32.0587 33.3035 32.3817 34.2263 32.7046C34.3012 32.7335 34.3762 32.7623 34.4512 32.7969C34.8837 32.9814 35.1375 33.3159 35.2586 33.7658C35.2816 33.8407 35.2932 33.9215 35.3105 33.9964C35.3105 34.1233 35.3105 34.256 35.3105 34.3944Z" fill="white"/>
<path d="M35.0567 21.3841C35.0452 21.5918 35.0163 21.7994 34.9471 21.9954C34.7799 22.4626 34.4569 22.7798 33.9783 22.9182C33.3497 23.0969 32.7153 23.2757 32.0809 23.4314C30.0164 23.9447 27.946 24.4464 25.8814 24.9539C25.2989 25.0981 24.7107 25.2365 24.1282 25.398C23.9206 25.4556 23.7188 25.4787 23.5112 25.5018C23.2228 25.5364 22.9402 25.4787 22.6692 25.3634C21.8964 25.0347 21.3312 24.1927 21.3428 23.3738C21.3485 23.0277 21.4466 22.7106 21.6484 22.4337C23.5458 19.8501 25.4489 17.2607 27.352 14.6771C27.5365 14.4234 27.7384 14.1754 27.9402 13.9332C28.3785 13.4084 28.9379 13.2757 29.5838 13.4545C29.8606 13.5352 30.1028 13.6794 30.3278 13.8524C30.7142 14.1465 31.0544 14.4926 31.3716 14.8559C32.6173 16.2746 33.6553 17.8317 34.48 19.5329C34.6992 19.9885 34.8895 20.4499 34.9933 20.9458C35.0279 21.09 35.0394 21.24 35.0567 21.3841Z" fill="white"/>
<path d="M0.82373 27.2779C0.835264 26.2514 0.887168 25.2595 1.02558 24.2791C1.11208 23.6563 1.22166 23.0392 1.4235 22.4452C1.52154 22.1568 1.63688 21.88 1.82719 21.6436C2.05787 21.3552 2.34045 21.1476 2.70377 21.0553C2.96906 20.9919 3.23434 20.9919 3.49386 21.0842C4.02442 21.2803 4.55499 21.4648 5.07979 21.6782C7.81912 22.7912 10.5527 23.91 13.292 25.0346C13.7015 25.2018 14.0129 25.4902 14.2032 25.8939C14.5261 26.5628 14.5204 27.2376 14.1917 27.9008C13.9725 28.3391 13.6207 28.6159 13.1478 28.7658C11.7868 29.1984 10.4258 29.6367 9.05903 30.0749C7.33469 30.6228 5.61612 31.1707 3.89178 31.7128C3.62074 31.7993 3.34968 31.8685 3.07286 31.9319C2.60574 32.0415 2.19051 31.9262 1.82143 31.632C1.56768 31.4244 1.3889 31.1591 1.26779 30.8535C1.12362 30.4902 1.04865 30.1095 0.98521 29.7289C0.852568 28.8235 0.841032 28.1257 0.82373 27.2779Z" fill="white"/>
<path d="M18.1767 38.4718C18.1651 39.9424 18.1536 41.413 18.1363 42.8836C18.1305 43.2296 18.119 43.5757 18.0902 43.9159C18.0383 44.4984 17.7096 44.879 17.1848 45.1097C16.8676 45.2481 16.5273 45.2827 16.1871 45.2654C15.4431 45.2308 14.7165 45.0693 14.0014 44.8732C12.5192 44.4695 11.089 43.9274 9.728 43.2181C9.30701 42.999 8.89755 42.7567 8.51693 42.4742C8.26318 42.2838 8.03251 42.0647 7.87103 41.7879C7.61728 41.3611 7.55384 40.9113 7.73839 40.4384C7.79029 40.3115 7.85949 40.1904 7.946 40.0808C8.26895 39.6714 8.58614 39.2562 8.92062 38.8582C10.4027 37.0993 11.8906 35.3519 13.3785 33.593C13.8053 33.0912 14.2263 32.5895 14.6473 32.0878C15.1029 31.5399 15.6911 31.3381 16.3889 31.4188C16.9079 31.4822 17.352 31.6898 17.7153 32.0705C18.0383 32.405 18.1997 32.8086 18.194 33.2815C18.1824 35.0116 18.1709 36.7417 18.1594 38.4661C18.1709 38.4718 18.1767 38.4718 18.1767 38.4718Z" fill="white"/>
</svg>
